<svg xmlns="http://www.w3.org/2000/svg" viewBox="0 0 512 512">
  <defs>
    <linearGradient id="blueGrad" x1="0%" y1="0%" x2="100%" y2="100%">
      <stop offset="0%" style="stop-color:#4fc3f7;stop-opacity:1" />
      <stop offset="100%" style="stop-color:#2196f3;stop-opacity:1" />
    </linearGradient>
  </defs>
  <path fill="url(#blueGrad)" d="M256 48C141.1 48 48 141.1 48 256s93.1 208 208 208 208-93.1 208-208S370.9 48 256 48zm0 374.4c-91.7 0-166.4-74.7-166.4-166.4S164.3 89.6 256 89.6 422.4 164.3 422.4 256 347.7 422.4 256 422.4z"/>
  <path fill="url(#blueGrad)" d="M97.6 256c0-87.4 71-158.4 158.4-158.4V48C141.1 48 48 141.1 48 256s93.1 208 208 208v-49.6c-87.4 0-158.4-71-158.4-158.4z"/>
  <path fill="url(#blueGrad)" d="M48 256l-40 48 80 0z" transform="rotate(-45 68 280)"/>
  <path fill="url(#blueGrad)" d="M256 136c-11 0-20 9-20 20v100c0 5.3 2.1 10.4 5.9 14.1l60 60c7.8 7.8 20.5 7.8 28.3 0s7.8-20.5 0-28.3L276 247.7V156c0-11-9-20-20-20z"/>
</svg>
